<mxfile host="app.diagrams.net" modified="2024-02-13T08:44:13.483Z" agent="Mozilla/5.0 (Windows NT 10.0; Win64; x64) AppleWebKit/537.36 (KHTML, like Gecko) Chrome/121.0.0.0 Safari/537.36" etag="mwN4WWTkDHYdTTtE-RIv" version="23.1.3" type="github">
  <diagram name="Page-1" id="67M1APjgp8h2Bc2o7A60">
    <mxGraphModel dx="880" dy="426" grid="1" gridSize="10" guides="1" tooltips="1" connect="1" arrows="1" fold="1" page="1" pageScale="1" pageWidth="850" pageHeight="1100" math="0" shadow="0">
      <root>
        <mxCell id="0" />
        <mxCell id="1" parent="0" />
        <mxCell id="rv1Pi111y5SHZij0_mMK-3" value="" style="html=1;outlineConnect=0;whiteSpace=wrap;fillColor=#ffff99;verticalLabelPosition=bottom;verticalAlign=top;align=center;shape=mxgraph.archimate3.actor;" vertex="1" parent="1">
          <mxGeometry x="190" y="170" width="40" height="90" as="geometry" />
        </mxCell>
        <mxCell id="rv1Pi111y5SHZij0_mMK-4" value="&lt;b&gt;Login&lt;/b&gt;" style="ellipse;whiteSpace=wrap;html=1;" vertex="1" parent="1">
          <mxGeometry x="440" y="70" width="120" height="80" as="geometry" />
        </mxCell>
        <mxCell id="rv1Pi111y5SHZij0_mMK-5" value="&lt;b&gt;Initiate Transfer&lt;/b&gt;" style="ellipse;whiteSpace=wrap;html=1;" vertex="1" parent="1">
          <mxGeometry x="440" y="156" width="120" height="80" as="geometry" />
        </mxCell>
        <mxCell id="rv1Pi111y5SHZij0_mMK-6" value="&lt;b&gt;Select Beneficiary&lt;/b&gt;" style="ellipse;whiteSpace=wrap;html=1;" vertex="1" parent="1">
          <mxGeometry x="440" y="244" width="120" height="80" as="geometry" />
        </mxCell>
        <mxCell id="rv1Pi111y5SHZij0_mMK-7" value="&lt;b&gt;Enter Transfer Details&lt;/b&gt;" style="ellipse;whiteSpace=wrap;html=1;" vertex="1" parent="1">
          <mxGeometry x="440" y="330" width="120" height="80" as="geometry" />
        </mxCell>
        <mxCell id="rv1Pi111y5SHZij0_mMK-8" value="&lt;b&gt;Confirm Transaction&lt;/b&gt;" style="ellipse;whiteSpace=wrap;html=1;" vertex="1" parent="1">
          <mxGeometry x="440" y="420" width="120" height="80" as="geometry" />
        </mxCell>
      </root>
    </mxGraphModel>
  </diagram>
</mxfile>
